<?xml version="1.0" encoding="utf-8"?>
<!-- Generator: Adobe Illustrator 17.0.0, SVG Export Plug-In . SVG Version: 6.00 Build 0)  -->
<!DOCTYPE svg PUBLIC "-//W3C//DTD SVG 1.1//EN" "http://www.w3.org/Graphics/SVG/1.1/DTD/svg11.dtd">
<svg version="1.1" id="_x33__EURO_Final" xmlns="http://www.w3.org/2000/svg" xmlns:xlink="http://www.w3.org/1999/xlink" x="0px"
	 y="0px" width="300px" height="105px" viewBox="0 195.418 300 105" enable-background="new 0 195.418 300 105"
	 xml:space="preserve">
<path id="Logo2016_x5F_Prt_x5F_1Col_x5F_Blk_x5F_OnBlk" fill="#FFFFFF" d="M150.158,222.027c9.083-0.008,17.22,3.994,22.789,10.316
	l1.594-1.398c-5.941-6.778-14.679-11.048-24.382-11.041c-9.712,0-18.439,4.291-24.365,11.057l1.599,1.416
	C132.942,226.039,141.076,222.037,150.158,222.027z M127.375,221.995c-0.73,0.586-1.619,0.904-2.423,0.807
	c-0.977-0.11-1.591-0.509-2.534-1.658l-4.761-5.854l-2.119,1.709l5.218,6.407c1.105,1.348,2.344,2.064,3.783,2.194
	c1.648,0.151,3.113-0.34,4.561-1.504c1.433-1.187,2.201-2.52,2.396-4.139c0.155-1.461-0.283-2.818-1.369-4.161l-5.225-6.416
	l-2.121,1.726l4.779,5.859c0.937,1.144,1.207,1.84,1.114,2.817C128.607,220.583,128.125,221.39,127.375,221.995z M144.999,202.897
	l-8.422,1.714c-0.586,0.119-0.942,0.571-0.813,1.211l1.782,8.668c0.586,2.966,2.748,3.636,5.123,3.142l5.122-1.05l-0.511-2.511
	l-4.98,1.007c-1.267,0.261-1.859,0.016-2.135-1.426l-0.274-1.289l6.187-1.271l-0.493-2.47l-6.193,1.244l-0.638-3.069l6.773-1.388
	L144.999,202.897z M161.796,206.876l4.912,1.291l0.645-2.483l-5.067-1.333c-2.343-0.61-4.523-0.042-5.287,2.867l-2.245,8.566
	c-0.159,0.601,0.166,1.085,0.739,1.245l1.665,0.424l1.433-5.54l6.105,1.606l0.646-2.45l-6.107-1.6l0.331-1.275
	C159.928,206.762,160.514,206.559,161.796,206.876z M176.901,228.125l3.948-13.76c0.152-0.497,0.204-0.991-0.424-1.49l-0.543-0.406
	c-0.646-0.482-1.111-0.303-1.552-0.011l-11.974,7.791l2.529,1.415l8.644-5.611l-1.348,4.735l-1.137-0.878l-2.287,1.484l2.642,2.025
	l-0.759,2.657L176.901,228.125z M246.026,248.28c-1.201,0-2.395,0.222-3.526,0.665c1.761-3.265,4.144-6.152,7.193-8.762
	c0.498-0.408,0.802-1.063,0.802-1.666c0-1.044-0.98-1.996-2.073-1.996c-0.484,0-0.945,0.166-1.325,0.464
	c-5.628,4.406-11.607,13.471-11.604,21.631c0,6.347,4.148,10.448,10.545,10.441c6.104,0,10.531-4.407,10.525-10.45
	C256.563,252.628,252.127,248.28,246.026,248.28z M246.037,265.018c-3.936,0-6.368-2.439-6.373-6.403c0-3.874,2.429-6.305,6.36-6.31
	c1.922,0,6.383,0.628,6.391,6.302C252.416,262.371,249.802,265.01,246.037,265.018z M189.337,266.771c0-1.137-0.917-2.05-2.056-2.05
	h-14.906c0.39-1.151,1.156-2.017,2.408-2.836l8.843-5.746c3.2-2.063,5.627-5.911,5.62-8.943c-0.01-6.455-4.205-10.633-10.712-10.633
	c-6.267,0.016-10.616,4.16-10.836,10.351c0,1.236,1.009,2.227,2.221,2.227s2.202-0.997,2.225-2.197
	c0.151-5.776,4.928-6.235,6.39-6.235c3.959-0.008,6.396,2.479,6.405,6.493c0,2.604-1.977,4.408-3.648,5.459l-8.836,5.752
	c-3.285,2.12-4.728,5.89-4.784,10.428h19.61C188.424,268.839,189.337,267.913,189.337,266.771z M142.785,280.926
	c-0.225-0.603-0.714-0.976-1.294-0.976h-0.634c-0.583,0-1.102,0.373-1.272,0.9l-7.493,15.396c-0.045,0.088-0.094,0.376-0.094,0.536
	c-0.008,0.811,0.581,1.422,1.332,1.432c0.572,0,1.109-0.323,1.333-0.819l2.063-4.226h8.834l0.208,0.429
	c0.354,0.788,0.574,1.704,0.574,2.375c0,0.182-0.022,0.419-0.048,0.6l-0.021,0.28c0,0.808,0.628,1.379,1.489,1.384
	c1.411,0,1.411-1.435,1.411-1.97c0.006-1.313-0.334-2.803-0.901-3.987L142.785,280.926z M137.945,290.442l3.16-6.7l3.191,6.7
	H137.945z M200.565,295.416h-9.589v-5.069h7.88c0.7,0,1.453-0.56,1.46-1.403c0-0.741-0.673-1.381-1.46-1.381h-7.88v-4.813h9.356
	c0.837,0,1.46-0.563,1.46-1.332c0-0.807-0.641-1.468-1.454-1.468h-10.762c-0.851,0-1.449,0.753-1.449,1.447v15.355
	c0,0.839,0.621,1.485,1.449,1.485h10.982c0.817,0,1.422-0.602,1.427-1.43C201.986,295.998,201.402,295.416,200.565,295.416z
	 M165.841,253.275c-0.008-9.29-6.824-16.807-15.675-16.799c-8.837,0.004-15.66,7.542-15.653,16.818c0,3.155,0.839,6.115,2.281,8.64
	l8.683-0.006l-0.672-0.604c-2.078-1.842-3.497-4.673-3.503-8.029c0-5.943,4.037-10.279,8.863-10.279
	c4.841,0,8.88,4.323,8.895,10.265c0,5.962-4.066,10.929-8.873,10.929h-14.691c-1.956,0-4.282-0.437-6.058-1.129
	c-0.76-0.276-1.417-0.667-1.878-0.957c-0.765-0.513-1.422-1.128-1.972-1.866l-1.253-1.651c3.924-1.671,6.667-5.545,6.667-10.066
	c-0.007-6.033-4.893-10.912-10.925-10.912h-14.034c-1.794,0-3.227,1.433-3.227,3.213v24.996c0.005,1.758,1.455,3.192,3.249,3.192
	c1.758-0.006,3.212-1.435,3.212-3.198l-0.008-6.362l7.787-0.008c1.008,1.368,1.955,2.578,3.011,4.074
	c0.378,0.532,0.774,1.041,1.214,1.514c2.854,3.285,7.478,5.08,14.214,5.08h14.691C159.038,270.117,165.848,262.564,165.841,253.275z
	 M120.077,253.02h-10.816v-8.951h10.807c2.474,0.012,4.465,2.002,4.472,4.471C124.54,251.001,122.55,253.004,120.077,253.02z
	 M177.866,282.456c1.78,0.008,3.105,0.604,4.306,1.928c0.371,0.426,0.634,0.775,0.829,1.089c0.31,0.56,0.726,0.85,1.23,0.85
	c0.741,0,1.299-0.568,1.308-1.303c0-0.374-0.17-0.696-0.286-0.962c-0.349-0.634-0.899-1.313-1.301-1.747
	c-1.649-1.762-3.632-2.618-6.086-2.623c-5.023-0.021-8.965,4.067-8.971,9.279v0.178c0.052,5.149,4.066,9.345,8.949,9.355
	c2.432,0.015,4.419-0.846,6.083-2.602c0.201-0.211,0.876-0.978,1.301-1.756c0.061-0.111,0.288-0.516,0.288-0.927
	c0.009-0.748-0.565-1.328-1.294-1.328c-0.502,0-0.912,0.278-1.231,0.827c-0.215,0.355-0.501,0.737-0.829,1.098
	c-1.215,1.325-2.544,1.93-4.317,1.93c-3.36-0.01-6.055-2.907-6.118-6.586v-0.181C171.735,285.304,174.431,282.448,177.866,282.456z
	 M164.911,279.951c-0.943,0-1.368,0.776-1.368,1.549v10.822l-8.643-11.57c-0.364-0.481-0.743-0.802-1.425-0.802
	c-0.952,0-1.5,0.563-1.5,1.549v15.004c0,1.133,0.521,1.732,1.5,1.732c0.903,0,1.422-0.633,1.422-1.732v-10.692l8.75,11.755
	c0.33,0.451,0.803,0.67,1.448,0.67c0.842,0,1.367-0.593,1.367-1.55v-15.187C166.462,280.748,165.839,279.951,164.911,279.951z
	 M189.483,213.883c-9.991-10.233-23.926-16.56-39.345-16.547c-15.416,0.011-29.334,6.357-39.319,16.604l1.534,1.483
	c9.598-9.828,22.979-15.936,37.792-15.941c14.819-0.016,28.225,6.076,37.806,15.885L189.483,213.883z M110.888,279.951H99.696
	c-0.768-0.012-1.427,0.633-1.427,1.402v15.456c0,0.804,0.598,1.427,1.397,1.427c0.784,0,1.421-0.615,1.421-1.419v-6.522l8.367,0.007
	c0.736,0.012,1.427-0.699,1.427-1.433c0-0.737-0.667-1.356-1.458-1.356h-8.335v-4.709h9.811c0.789,0,1.433-0.613,1.433-1.39
	C112.33,280.717,111.748,279.951,110.888,279.951z M66.13,262.437l-15.987,0.004v-6.042h13.622c1.771,0,3.204-1.478,3.204-3.265
	c0-1.808-1.491-3.197-3.248-3.197H50.143v-6.021h16.019c1.771,0,3.218-1.446,3.218-3.235c-0.008-1.836-1.476-3.234-3.264-3.234
	H46.923c-1.778,0-3.219,1.461-3.211,3.254v24.955c0,1.845,1.499,3.248,3.264,3.248l19.205-0.014c1.773,0,3.216-1.454,3.216-3.248
	C69.397,263.833,67.916,262.427,66.13,262.437z M205.679,236.548c-8.554,0.015-15.493,7.31-15.487,16.282
	c0.008,8.951,6.957,16.262,15.51,16.254c8.548-0.008,15.484-7.323,15.471-16.275C221.172,243.835,214.227,236.543,205.679,236.548z
	 M205.701,264.924c-6.131,0.008-11.124-5.422-11.132-12.099c-0.007-6.665,4.985-12.126,11.118-12.126
	c6.138,0,11.129,5.446,11.136,12.117C216.823,259.49,211.844,264.916,205.701,264.924z M221.542,242.59
	c-0.761,0.774-0.761,2.036,0.017,2.795c0.375,0.385,0.882,0.564,1.41,0.57c0.435-0.006,0.867-0.115,1.258-0.426l2.713-2.396v23.72
	c0,1.217,0.97,2.201,2.179,2.201c1.225,0,2.167-0.968,2.167-2.204v-29.304h-3.931L221.542,242.59z M95.071,237.424
	c-1.802,0-3.226,1.468-3.226,3.248v14.956c0,4.222-3.112,7.364-6.613,7.364c-3.49,0-6.603-3.127-6.603-7.361V240.68
	c0-1.744-1.404-3.197-3.183-3.234c-1.815-0.021-3.263,1.461-3.258,3.234v14.958c0.006,7.39,5.746,13.548,13.105,13.589
	c7.282-0.045,12.978-6.234,12.971-13.615v-14.945C98.264,238.92,96.865,237.424,95.071,237.424z M129.128,295.565
	c-1.052-0.41-1.905-1.072-2.531-1.973l-1.16-1.624c2.583-0.787,4.373-3.145,4.397-5.862c0.006-3.528-2.758-6.153-6.567-6.153
	c-5.735-0.007-7.147,0-7.363,0c-0.728,0-1.363,0.642-1.363,1.401v15.427c-0.008,0.813,0.605,1.429,1.371,1.436
	c0.813,0,1.471-0.612,1.471-1.426v-4.55h4.775l2.101,2.902c0.913,1.275,2.011,2.144,3.893,3.042c0.059,0.03,0.24,0.053,0.365,0.051
	c0.827,0,1.433-0.594,1.433-1.407C129.955,296.255,129.599,295.73,129.128,295.565z M123.251,289.472l-5.868-0.013v-6.727h5.876
	c2.252,0,3.754,1.402,3.748,3.514C127.007,288.174,125.489,289.472,123.251,289.472z"/>
</svg>
