<?xml version="1.0" encoding="utf-8"?>
<!-- Generator: Adobe Illustrator 19.1.0, SVG Export Plug-In . SVG Version: 6.00 Build 0)  -->
<svg version="1.1" id="Isolation_Mode" xmlns="http://www.w3.org/2000/svg" xmlns:xlink="http://www.w3.org/1999/xlink" x="0px"
	 y="0px" viewBox="311.1 237.4 227.3 41.6" style="enable-background:new 311.1 237.4 227.3 41.6;" xml:space="preserve">
<style type="text/css">
	.st0{fill:#FFFFFF;}
</style>
<path class="st0" d="M345.1,263.7c-0.2,0-0.3,0-0.4,0.1c-2.1,1.6-4.3,3.1-6.6,4.5l-0.4,0.2c-0.9,0.5-1.9,1.1-2.7,1.4
	c-0.5,0.2-1.2,0.3-1.9,0.3c-0.2,0-0.4,0-0.6,0h-0.1c-0.3,0-0.4,0-0.5-0.2c-0.2-0.2-0.4-0.5-0.5-0.9c-0.2-0.6-0.3-1.4-0.2-2.1
	c1.8-0.4,4-1.1,5.7-2.7c1.3-1.2,2.2-3.3,1.6-4.9c-0.3-0.8-1.2-1.2-2.4-1.2c-0.3,0-0.5,0-0.8,0.1c-1.2,0.2-2.3,1-3,1.6
	c-1.7,1.5-3.1,3.7-3.6,5.9c-0.4,1.6-0.3,3.8,1.1,5.2c0.7,0.8,1.9,1.1,3.4,1.1c0.6,0,1.4-0.1,2.1-0.2c0.9-0.2,1.7-0.5,2.6-1
	s1.9-1,3-1.7c2-1.2,3.9-2.6,5.7-4c0.2-0.2,0.3-0.4,0.2-0.6C346.6,264,345.5,263.7,345.1,263.7 M335.6,261.8c-0.6,1.3-1.9,2.3-3.9,3
	c0.6-1.5,1.7-3,2.9-4c0.5-0.4,0.9-0.7,1.3-0.8h0.1C336.1,260.2,336.1,260.7,335.6,261.8"/>
<path class="st0" d="M325.5,271.2h-0.2c-0.6-0.1-1.1-0.1-1.8-0.1c-0.4,0-0.9,0-1.4,0c-1.8,0.1-3.6,0.4-5.3,0.9
	c0.1-0.5,0.2-1,0.3-1.4c0.5-1.9,1.2-3.9,1.9-5.6c1.4-3.7,2.9-7.3,4.1-10.1c1.1-2.7,2.4-5.5,3.9-8.9c0.1-0.1,0.1-0.3,0-0.4
	c-0.2-0.2-0.5-0.4-1.2-0.4c-0.4,0-1.3,0.1-1.5,0.5c-2.9,6.4-6.3,13.7-8.8,21.3c-0.5,1.4-0.9,2.8-1.3,4.3c-0.1,0.5-0.2,0.9-0.2,1.4
	c-0.3,0.1-0.5,0.2-0.8,0.2c-0.6,0.2-1.2,0.4-1.8,0.5c-0.2,0.1-0.4,0.3-0.3,0.5c0.1,0.5,1.2,1.2,1.7,1.2c0.1,0,0.1,0,0.2,0
	c3.1-0.9,6.5-1.2,9.5-1.4c0.6,0,1.1-0.1,1.7-0.1c0.5,0,0.9,0,1.4,0c0.1,0,0.3,0,0.3,0h0.1c0.1,0,0.2,0,0.3,0c0.2,0,0.3,0,0.5-0.1
	c0.3-0.1,1.1-0.8,1.2-1.3c0-0.2,0-0.4-0.2-0.6C327.1,271.4,326.2,271.3,325.5,271.2"/>
<path class="st0" d="M454.1,259.7c-0.2-0.6-1.4-0.9-1.9-0.9c-0.2,0-0.3,0-0.4,0.1c-2.2,1.7-4.2,3.3-6.5,4.6l-0.4,0.2
	c-0.9,0.5-1.9,1.1-2.8,1.4c-0.5,0.1-1.1,0.2-1.7,0.2c-0.3,0-0.5,0-0.8-0.1c-0.2,0-0.2,0-0.3-0.1c-0.1,0-0.2-0.1-0.2-0.2
	c-0.2-0.2-0.4-0.6-0.5-1c-0.2-0.6-0.2-1.2-0.2-1.9c1.8-0.4,4-1.1,5.7-2.7c1.3-1.2,2.2-3.3,1.6-4.8c-0.3-0.8-1.2-1.2-2.4-1.2
	c-0.3,0-0.5,0-0.8,0.1c-1.2,0.2-2.3,1-3,1.6c-1.5,1.3-2.7,3.1-3.4,5l0,0c-1.6,1.5-3.4,2.6-5.2,3.6c-1.5,0.9-3.2,1.7-4.6,1.9h-0.2
	H426l0,0l-0.1-0.1c-0.2-0.3-0.3-0.9-0.2-1.7c0.1-1.1,0.8-3,2-5.7c0.1-0.1,0.1-0.3,0.2-0.4c0,0,0-0.1,0.1-0.1
	c0.3-0.4,0.5-0.8,0.8-1.2c1-1.7,1.9-3.6,2.8-6.1c0.8-2.2,1.5-4.5,1.9-6.7c0-0.1,0-0.3-0.1-0.4c-0.1-0.2-0.4-0.3-0.8-0.3
	c0,0-1.9,0-2,0.8c-0.5,2.8-1,4.8-2,7.3c-1.2,2.9-2.4,5-3.8,6.9c-0.8,1.1-1.7,2.1-2.5,2.9l-0.3,0.4c-0.7,0.8-1.5,1.7-2.4,2.4
	c-0.8,0.7-1.7,1.2-2.6,1.5c-0.3,0.1-0.4,0.1-0.6,0.1l0,0c-0.4-0.5-0.3-1.3,0.2-2.6c0.3-0.9,0.9-1.8,1.5-2.6c0.6-0.7,1.4-1.4,2.3-1.9
	c0.4-0.2,0.9-0.3,1.1-0.3h0.1c0.1,0,0.1,0,0.2,0.1s0.2,0.1,0.3,0.3c0.2,0.2,0.5,0.3,0.9,0.3c0.1,0,1.2,0,1.5-0.5
	c0.1-0.2,0.1-0.3,0-0.5c-0.7-0.9-1.7-1.4-3-1.4c-1,0-2.1,0.3-3.1,0.9c-1.5,0.8-2.7,2.1-3.7,3.9c-1.7,1.2-3.7,2.5-5.8,3.6
	c-0.7,0.4-1.3,0.6-1.9,0.8c-0.2,0.1-0.5,0.2-0.7,0.2l-0.2,0.1c-0.1,0-0.2,0-0.3,0h-0.1v-0.1c0-0.1,0-0.2,0-0.2V265
	c0-0.4,0.2-0.8,0.3-1.2c0-0.1,0.1-0.3,0.1-0.4c0.4-1.4,0.6-2.5,0.7-3.5c0.1-0.8,0.1-1.8-0.4-2.6c-0.4-0.7-1.2-1.1-2.1-1.1
	c-0.6,0-1.2,0.2-1.8,0.5c-1.2,0.6-2.2,1.7-3.1,2.6c-0.7,0.8-1.4,1.6-2.2,2.5c0.8-2.1,1.8-4,2.8-5.7c0.1-0.2,0.1-0.3,0-0.5
	c-0.2-0.3-0.7-0.4-1.5-0.4c-1.1,0-1.3,0.3-1.3,0.4c-1.1,1.8-1.8,3.4-2.5,5.3l-0.2,0.5c-2.2,1.7-4.5,2.9-6.4,4c-0.4,0.2-3.8,2-6,2
	c-0.7,0-1.2-0.2-1.4-0.6c-0.5-0.7-0.5-1.8-0.4-2.5c1.8-0.4,4-1.1,5.7-2.7c1.3-1.2,2.2-3.3,1.6-4.8c-0.3-0.7-1.2-1.2-2.3-1.2
	c-0.3,0-0.5,0-0.7,0.1c-1.2,0.2-2.2,1-3,1.6c-1.8,1.5-3.1,3.7-3.6,5.9c-0.4,2,0,3.9,1.1,5.2c0.7,0.8,1.7,1.1,3,1.1
	c2.4,0,5.2-1.3,5.5-1.5c1.2-0.6,2.2-1.1,3.1-1.6c1-0.5,1.9-1.1,2.8-1.6c-0.2,0.6-0.3,1.2-0.4,1.9v0.1c-0.1,0.4-0.2,0.9,0.1,1.3
	c0.2,0.4,0.7,0.6,1.3,0.6c0.5,0,1-0.2,1.3-0.6c0.2-0.3,0.5-0.6,0.7-1c0.3-0.4,0.6-0.8,0.9-1.2c1.6-2.1,3.5-4.8,5.8-6.8
	c0.4-0.3,0.7-0.5,1-0.7c0.1,0.3,0.1,0.6,0.1,0.9c0,1-0.3,2.1-0.5,3.1c-0.1,0.2-0.1,0.5-0.2,0.7c-0.3,1-0.7,2.1-0.2,3.1
	c0.3,0.6,1.1,1.1,2,1.2c0.2,0,0.3,0,0.5,0c0.8,0,1.7-0.2,2.8-0.6c1.7-0.7,3.4-1.6,5.1-2.7c0,0.8,0.2,1.6,0.8,2.2
	c0.5,0.5,1.3,0.7,2.2,0.7c0.2,0,0.4,0,0.6,0c0.9-0.1,1.9-0.5,3-1.1s2-1.4,2.8-2.3c-0.1,1.2-0.1,2.4,0.8,3.2c0.5,0.6,1.3,0.9,2.3,0.9
	c0.8,0,1.8-0.2,2.9-0.6c1.7-0.6,3.4-1.6,4.7-2.4c0.7-0.4,1.4-0.8,2-1.3c0.1,1,0.4,2.1,1.2,2.9c0.7,0.8,1.9,1.1,3.4,1.1
	c0.6,0,1.3-0.1,2.1-0.2c0.9-0.2,1.7-0.5,2.7-1s1.9-1,3-1.7c2-1.2,3.9-2.5,5.7-3.9C454.1,260.2,454.2,259.9,454.1,259.7 M442.9,257
	c-0.6,1.3-1.9,2.3-3.9,3c0.6-1.6,1.8-3.1,3.1-4.1c0.4-0.3,0.8-0.6,1.2-0.7C443.4,255.5,443.3,256.2,442.9,257 M385.5,257.6
	c0,0.4-0.2,0.7-0.3,1.2c-0.6,1.5-2,2.5-4.2,3.2c0.5-1.3,1.4-2.7,2.6-3.7c0.4-0.4,0.9-0.7,1.4-1c0.2-0.1,0.3-0.2,0.5-0.2
	C385.5,257.2,385.5,257.4,385.5,257.6"/>
<path class="st0" d="M368,260.1c3.5-1.8,7.4-4,10.6-7c2.1-2,3.3-3.9,3.6-5.7c0.2-1.6-0.5-3.1-1.8-3.8c-0.7-0.3-1.4-0.5-2.3-0.5
	c-1.9,0-4.2,0.8-6.8,2.4c-2.3,1.4-4.5,3.2-6.5,5.4c0-0.1,0-0.1,0-0.2c0.5-1.9,0.8-3.4,1.1-4.8c0-0.1,0-0.3-0.1-0.4
	c-0.1-0.1-0.3-0.2-0.6-0.2c-0.5,0-2.1,0.3-2.2,1c-0.1,0.6-0.2,1-0.2,1.5c-0.1,0.8-0.2,1.5-0.5,2.5c-0.7,2.5-1.6,5.8-3.3,8.8l0,0
	c-1.4,2.5-2.7,5.1-3.8,8c-0.5,1.3-0.9,2.5-1.3,3.5c-0.3,0.8-0.5,1.6-0.5,2.3c0,0.1,0,0.3,0.1,0.4c0.3,0.3,0.9,0.3,1.2,0.3
	c0.5,0,0.9-0.1,1.1-0.3c0.1-0.1,0.2-0.2,0.2-0.4v-0.1c0-0.1,0-0.2,0-0.2c0-0.2,0.1-0.5,0.2-0.7c0.2-0.6,0.4-1.3,0.6-1.8
	c0.5-1.5,1.2-3.2,2-5.1c2.2-4.8,4.5-8.7,7.1-11.8c2.9-3.5,6.3-6.2,9.7-7.6c0.3-0.1,0.7-0.3,1-0.4c0.3-0.1,0.6-0.2,0.9-0.2
	c0.1,0,0.3,0,0.4-0.1h0.3h0.1h0.1h0.1h0.1v-0.1v0.1l0.1-0.3v-0.1v0.4h0.1h0.1h0.1c0,0,0.1,0,0.1,0.1h0.1l0.1,0.1
	c0.1,0.1,0.1,0.2,0.2,0.3c0,0,0.1,0.1,0.1,0.2l0,0c0,0.1,0.1,0.2,0.1,0.4c0,0.1,0,0.3,0,0.4c0,0.1,0,0.1,0,0.2v0.1v0.1
	c0,0.3-0.1,0.6-0.2,1s-0.4,0.9-0.5,1.1c-1.5,2.6-4.3,4.6-6.7,6.2c-1.6,1.1-3.4,2.1-5.5,3.2c-0.1-0.1-0.1-0.1-0.1-0.2
	c-0.2-0.6-1.4-0.6-1.6-0.6c-0.4,0-1,0.1-1.2,0.4c-0.1,0.1-0.2,0.3-0.1,0.5c0.2,1,0.8,1.8,1.3,2.5c0.2,0.2,0.8,0.8,1.5,1.7
	c2.7,2.9,7.6,8.3,9.9,11.7c0.1,0.2,0.5,0.3,0.9,0.3c0.3,0,0.9-0.1,1.1-0.4c0.1-0.2,0.1-0.3,0-0.5C376.1,270.5,372.6,265.5,368,260.1
	"/>
<path class="st0" d="M459.2,252.6c-0.3,0-0.6-0.1-1-0.1c-2.1,0-4.1,0.9-5.4,2.3c-0.1,0.1-0.2,0.3-0.1,0.5c0.2,0.5,1.3,0.7,1.8,0.7
	c0.3,0,0.5-0.1,0.6-0.2c0.6-0.7,1.7-1.3,2.7-1.5c0.2,0,0.4,0,0.6-0.1c0.1,0,0.2,0,0.3,0c0.1,0,0.1,0,0.2,0h0.1c0.1,0,0.1,0,0.2,0.1
	c0.1,0,0.1,0.1,0.2,0.1l0.1,0.1l0.1,0.1l0,0c0,0,0.1,0.1,0.1,0.2c0,0,0,0,0,0.1s0.1,0.2,0.1,0.4s0,0.2,0,0.3v0.1
	c-0.2,1-1,1.9-1.9,2.7c-1.6,1.5-3.5,2.7-5.4,3.8c-0.2,0.1-0.3,0.3-0.2,0.5c0.1,0.4,1,1,1.6,1c0.1,0,0.1,0,0.2,0h0.1l0.3-0.1
	c0.5-0.1,1-0.2,1.4-0.2h0.3c0.1,0,0.2,0,0.3,0h0.2h0.2c0.1,0,0.1,0,0.2,0h0.1c0.1,0,0.3,0,0.4,0.1h0.1h0.1c0,0,0.2,0.1,0.3,0.1
	c0,0,0,0,0.1,0s0.1,0.1,0.1,0.1c0.1,0.1,0.1,0.1,0.2,0.3c0.1,0.2,0.1,0.3,0.2,0.6c0,0.1,0,0.3,0,0.4c-1.8,1.3-4.4,3.4-6,5.4
	c-1.4,1.7-2.4,3.2-3,4.7c-0.4,1-0.9,2.3,0,3.2c0.5,0.5,1.2,0.7,2.2,0.7c0.3,0,0.6,0,0.9-0.1c0.9-0.2,1.8-0.7,2.7-1.7
	c3.2-3.2,5.3-7.4,5.9-11.4c0.1-0.7,0.1-1.5-0.2-2.3c-0.3-0.5-0.8-1-1.5-1.3c-0.6-0.3-1.3-0.5-2.1-0.5c1-0.7,1.9-1.4,2.7-2.2
	c1.2-1.2,1.9-2.2,2.2-3.2c0.2-0.8,0.1-1.5-0.3-2.1C461.5,253.4,460.5,252.8,459.2,252.6 M453.8,275.7c-0.5,0.6-1.1,1.3-1.8,1.6h-0.1
	c0-0.2,0.1-0.4,0.2-0.8c0.4-1.4,1.4-2.8,2.3-4.1c1-1.4,2.3-2.7,3.7-4.1c-0.6,1.7-1.3,3.3-2.3,4.8C455.2,274,454.6,274.7,453.8,275.7
	L453.8,275.7z"/>
<path class="st0" d="M525,255.3L525,255.3c-0.4-0.4-1.2-0.6-1.6-0.6c-0.3,0-0.5,0.1-0.6,0.2c-1.4,1.5-2.8,2.9-4.3,4.2
	c-1,0.8-2,1.7-3.2,2.4c-0.1,0-0.1,0.1-0.2,0.1c-0.3-1.3,0.3-3.1,0.8-4.3c0.7-2,1.6-3.7,2.7-5.2c0.1-0.2,0.1-0.4,0-0.5
	c-0.3-0.5-1.4-0.7-1.8-0.7c-0.4,0-0.6,0.1-0.7,0.3c-0.8,1.2-1.4,2.4-2,3.7c-1.1,0.9-2.4,1.5-3.8,2c-1.3,0.5-2.5,0.8-3.6,1
	c0.1-0.3,0.3-0.6,0.3-0.9c0.2-0.5,0-0.9-0.1-1.1c-0.3-0.4-0.8-0.6-1.4-0.6c-0.1,0-0.2,0-0.4,0c-1,0.2-1.9,1-2.3,2.1
	c-0.2,0.7-0.2,1.4,0.2,1.8c-0.8,1.3-1.7,2.2-2.7,2.7c-0.3,0.1-0.6,0.2-0.8,0.3c-0.1,0-0.1,0-0.2,0h-0.2H499h-0.1h-0.1l0,0l-0.1-0.1
	c-0.1-0.1-0.2-0.2-0.3-0.4c-0.4-1.2,0.6-2.7,1.4-4c1.3-1.8,2.5-3,3.6-3.3c0.1,0,0.1,0,0.2,0s0.1,0,0.2,0.1l0.2,0.1
	c0.1,0,0.2,0.1,0.3,0.1h0.1h0.1c0.5,0,1-0.8,1-0.8c0-0.1,0.2-0.3,0.1-0.5s-0.3-0.4-0.7-0.6c-0.5-0.2-1-0.3-1.5-0.3
	c-3.3,0-6.1,4.1-7.1,6.3c-0.9,1.8-0.7,3.5,0.4,4.4c0.7,0.5,1.5,0.8,2.5,0.8c0.9,0,1.9-0.2,2.8-0.7c1.7-0.8,2.8-2.3,3.5-3.5
	c0.5,0,1-0.1,1.4-0.2c1.6-0.3,3.3-0.7,5.1-1.4h0.1c0.3-0.1,0.6-0.2,0.8-0.3c-0.4,1.3-0.7,2.8-0.4,4c0.2,1.1,1.1,1.7,2.4,1.7
	c0.3,0,0.7,0,1-0.1c1.2-0.3,2.2-1.1,3.3-2c0.5-0.4,0.9-0.7,1.4-1.1c0,0.2,0,0.4,0,0.6c0,0.5,0.8,0.7,1.3,0.7c0.7,0,1-0.3,1-0.6
	c0-0.7,0.5-1.5,0.9-2.3c0.2-0.3,0.3-0.6,0.4-0.8c0.2-0.4,0.4-0.9,0.7-1.4c0.1-0.1,0.2-0.3,0.2-0.4c0.1-0.2,0.2-0.4,0.1-0.5
	L525,255.3z"/>
<path class="st0" d="M537.3,248.2L537.3,248.2L537.3,248.2c-2.8,0.5-5.3,2-7.4,3.3c-1.2,0.8-2.1,1.5-3,2.3c-0.5,0.4-1,0.9-1.3,1.5
	c-0.2,0.5-0.1,0.8,0,1c0.4,0.8,1.6,1,1.9,1c0.4,0.1,0.9,0.1,1.3,0.1h0.3c0.3,0,0.6,0,0.9,0.1h0.3h0.1c0,0,0.4,0,0.6,0.1
	c0.6,0.1,1.1,0.1,1.6,0.3h0.1h0.1c0.1,0,0.2,0.1,0.3,0.1s0.2,0.1,0.3,0.1s0.1,0.1,0.2,0.1c0,0,0.1,0,0.1,0.1l0.1,0.1h0.1l0,0l0,0
	c0,0,0,0.1,0.1,0.1v0.1c0,0.1,0,0.1,0,0.2c0,0.2-0.1,0.4-0.2,0.6c-0.8,1.6-5.4,2.9-5.9,3c-0.3,0-0.4,0.3-0.4,0.5
	c0,0.5,0.7,1.4,1.3,1.4h0.1l0,0c1-0.1,4.2-1.3,5.1-1.9c1.1-0.7,2.8-2,2.6-3.8c-0.1-1.1-1.1-1.9-3-2.5c-1.4-0.4-3-0.5-4.5-0.6
	c0,0-0.7-0.1-0.8-0.1l0.2-0.2c0.5-0.5,1-0.9,1.6-1.3c0.9-0.7,1.8-1.3,2.6-1.8c1.8-1.1,3.6-1.8,5.3-2.2c0.2,0,0.4-0.2,0.4-0.6
	C538.4,249.2,537.9,248.2,537.3,248.2"/>
<path class="st0" d="M511.4,238.7c0.2-0.1,0.2-0.4,0.2-0.6c-0.2-0.4-1-0.7-1.4-0.7c-0.2,0-0.4,0.1-0.6,0.2
	c-4.3,3.7-8.2,7.6-11.4,11.4c-3.4,4-6.6,8.2-9.6,12.6c-0.6,0.9-1.3,1.9-1.9,2.8s-1.2,1.9-1.9,2.8c-0.2,0.4-0.5,0.7-0.8,1.1
	c-0.1-0.4-0.2-0.7-0.2-1.2c-0.2-1.4-0.2-2.9-0.1-4.8c0.2-3,0.9-6.3,2-10.3c0.7-2.4,1.4-4.7,2.3-7l0.1-0.3c0.1-0.1,0.1-0.3,0.2-0.4
	c0.1-0.2,0.1-0.4,0-0.5c-0.2-0.3-0.8-0.4-1.2-0.4c-0.3,0-1.5,0-1.8,0.7c-1.9,4.6-2.7,9.2-3.5,13.5c-0.5,2.9-1.1,6.7-0.4,10.2
	c0.1,0.7,0.4,1.5,0.6,2.1c0.3,0.7,0.9,1.1,1.7,1.2h0.1c1.2,0,2-1.1,2.6-2l0.1-0.2c0.8-1.2,1.6-2.4,2.4-3.6c0.3-0.5,0.6-1,1-1.5
	c1.6-2.4,3.1-4.6,4.6-6.6c3.2-4.3,6.6-8.4,10.1-12.2C506.9,242.8,509.2,240.6,511.4,238.7"/>
<path class="st0" d="M476.1,256.9L476.1,256.9H476c-1.5,0.2-2.9,0.3-4.5,0.5c-1.1,0.1-2,0.2-2.9,0.2c-0.2,0-0.4,0-0.6,0
	s-0.4,0-0.7,0h-0.1c0,0,0,0-0.1,0c-0.2-0.1-0.4-0.2-0.7-0.2c-0.1,0-0.3,0-0.4,0.1c-0.3,0.1-0.4,0.5-0.4,0.8s-0.1,0.9,0.2,1.1
	c0.7,0.6,1.5,0.7,2.1,0.7h0.6c0.7,0,1.5-0.1,2.2-0.2c0.4-0.1,0.8-0.1,1.2-0.2c1-0.1,2.1-0.3,3-0.5c0.7-0.1,1.3-0.3,2-0.4
	c0.3,0,0.4-0.3,0.4-0.6C477.3,257.7,476.7,256.9,476.1,256.9"/>
</svg>
