<?xml version="1.0" standalone="no"?>
<!DOCTYPE svg PUBLIC "-//W3C//DTD SVG 20010904//EN"
 "http://www.w3.org/TR/2001/REC-SVG-20010904/DTD/svg10.dtd">
<svg version="1.0" xmlns="http://www.w3.org/2000/svg"
 width="128.000000pt" height="128.000000pt" viewBox="0 0 128.000000 128.000000"
 preserveAspectRatio="xMidYMid meet">
<metadata>
Created by potrace 1.11, written by Peter Selinger 2001-2013
</metadata>
<g transform="translate(0.000000,128.000000) scale(0.100000,-0.100000)"
fill="#000000" stroke="none">
<path d="M560 1271 c-87 -27 -165 -95 -202 -176 -17 -38 -22 -68 -22 -125 0
-66 5 -87 43 -175 51 -116 59 -161 37 -203 -19 -36 -15 -41 30 -35 41 6 45
-10 13 -51 -20 -26 -16 -31 19 -27 21 3 18 -42 -13 -189 -46 -213 -45 -224 27
-261 34 -18 63 -23 138 -25 140 -4 212 29 226 102 10 53 -21 176 -69 278 -40
83 -42 93 -24 88 17 -4 19 -2 12 14 -14 33 -6 67 30 134 110 202 137 267 141
335 9 173 -119 313 -290 320 -39 2 -82 0 -96 -4z"/>
<path d="M889 224 c-9 -11 -9 -18 -1 -26 6 -6 8 -17 4 -26 -4 -12 -1 -14 12
-9 10 4 21 7 24 7 4 0 0 5 -8 10 -10 6 -11 10 -2 10 17 0 15 37 -2 43 -8 3
-20 -1 -27 -9z"/>
<path d="M895 143 c-14 -11 -15 -14 -4 -10 9 3 21 1 26 -4 5 -5 9 -1 9 11 0
24 -5 24 -31 3z"/>
<path d="M880 105 c0 -8 9 -10 25 -7 14 2 25 6 25 7 0 1 -11 5 -25 7 -16 3
-25 1 -25 -7z"/>
</g>
</svg>
